<svg version="1.1" xmlns="http://www.w3.org/2000/svg" xmlns:xlink="http://www.w3.org/1999/xlink" width="876" height="1051"><defs/><g><g transform="translate(-702,-126) scale(1,1)"><path fill="none" stroke="#000000" d="M 712 136 L 1136 136 L 1136 720 L 712 720 L 712 136" stroke-miterlimit="10"/></g><g transform="translate(-702,-126) scale(1,1)"><path fill="#ffffff" stroke="none" d="M 712 136 L 712 158 L 809.66259765625 158 L 820.66259765625 147 L 820.66259765625 136 L 712 136"/></g><g transform="translate(-702,-126) scale(1,1)"><path fill="none" stroke="#000000" d="M 712 136 L 712 158 L 809.66259765625 158 L 820.66259765625 147 L 820.66259765625 136 L 712 136 L 712 136" stroke-miterlimit="10"/></g><g transform="translate(-702,-126) scale(1,1)"><g><path fill="none" stroke="none"/><text fill="#000000" stroke="none" font-family="Arial" font-size="13px" font-style="normal" font-weight="normal" text-decoration="none" x="723" y="153.5">instituteSpace</text></g></g><g transform="translate(-702,-126) scale(1,1)"><g><path fill="none" stroke="none"/><text fill="#000000" stroke="none" font-family="Arial" font-size="13px" font-style="normal" font-weight="bold" text-decoration="none" x="717" y="153.5"></text></g></g><g transform="translate(-702,-126) scale(1,1)"><path fill="none" stroke="#000000" d="M 1144 136 L 1567 136 L 1567 720 L 1144 720 L 1144 136" stroke-miterlimit="10"/></g><g transform="translate(-702,-126) scale(1,1)"><path fill="#ffffff" stroke="none" d="M 1144 136 L 1144 158 L 1222.14990234375 158 L 1233.14990234375 147 L 1233.14990234375 136 L 1144 136"/></g><g transform="translate(-702,-126) scale(1,1)"><path fill="none" stroke="#000000" d="M 1144 136 L 1144 158 L 1222.14990234375 158 L 1233.14990234375 147 L 1233.14990234375 136 L 1144 136 L 1144 136" stroke-miterlimit="10"/></g><g transform="translate(-702,-126) scale(1,1)"><g><path fill="none" stroke="none"/><text fill="#000000" stroke="none" font-family="Arial" font-size="13px" font-style="normal" font-weight="normal" text-decoration="none" x="1155" y="153.5">userSpace</text></g></g><g transform="translate(-702,-126) scale(1,1)"><g><path fill="none" stroke="none"/><text fill="#000000" stroke="none" font-family="Arial" font-size="13px" font-style="normal" font-weight="bold" text-decoration="none" x="1149" y="153.5"></text></g></g><g transform="translate(-702,-126) scale(1,1)"><path fill="none" stroke="#000000" d="M 712 728 L 1568 728 L 1568 1167 L 712 1167 L 712 728" stroke-miterlimit="10"/></g><g transform="translate(-702,-126) scale(1,1)"><path fill="#ffffff" stroke="none" d="M 712 728 L 712 750 L 800.26806640625 750 L 811.26806640625 739 L 811.26806640625 728 L 712 728"/></g><g transform="translate(-702,-126) scale(1,1)"><path fill="none" stroke="#000000" d="M 712 728 L 712 750 L 800.26806640625 750 L 811.26806640625 739 L 811.26806640625 728 L 712 728 L 712 728" stroke-miterlimit="10"/></g><g transform="translate(-702,-126) scale(1,1)"><g><path fill="none" stroke="none"/><text fill="#000000" stroke="none" font-family="Arial" font-size="13px" font-style="normal" font-weight="normal" text-decoration="none" x="723" y="745.5">adminSpace</text></g></g><g transform="translate(-702,-126) scale(1,1)"><g><path fill="none" stroke="none"/><text fill="#000000" stroke="none" font-family="Arial" font-size="13px" font-style="normal" font-weight="bold" text-decoration="none" x="717" y="745.5"></text></g></g><g transform="translate(-702,-126) scale(1,1)"><rect fill="#C0C0C0" stroke="none" x="1055" y="431" width="177.12451171875" height="44" opacity="0.2"/></g><g transform="translate(-702,-126) scale(1,1)"><rect fill="#e2e2e2" stroke="none" x="1048" y="424" width="177.12451171875" height="44"/></g><g transform="translate(-702,-126) scale(1,1)"><path fill="none" stroke="#000000" d="M 1048 424 L 1225.12451171875 424 L 1225.12451171875 468 L 1048 468 L 1048 424 Z Z" stroke-miterlimit="10"/></g><g transform="translate(-702,-126) scale(1,1)"><path fill="none" stroke="#000000" d="M 1048 449 L 1225.12451171875 449" stroke-miterlimit="10"/></g><g transform="translate(-702,-126) scale(1,1)"><path fill="none" stroke="#000000" d="M 1048 459 L 1225.12451171875 459" stroke-miterlimit="10"/></g><g transform="translate(-702,-126) scale(1,1)"><g><path fill="none" stroke="none"/><text fill="#000000" stroke="none" font-family="Arial" font-size="13px" font-style="normal" font-weight="bold" text-decoration="none" x="1095.372314453125" y="443.5">Start Dialogue</text></g></g><g transform="translate(-702,-126) scale(1,1)"><rect fill="#C0C0C0" stroke="none" x="1351" y="431" width="176" height="44" opacity="0.2"/></g><g transform="translate(-702,-126) scale(1,1)"><rect fill="#ffffff" stroke="none" x="1344" y="424" width="176" height="44"/></g><g transform="translate(-702,-126) scale(1,1)"><path fill="none" stroke="#000000" d="M 1344 424 L 1520 424 L 1520 468 L 1344 468 L 1344 424 Z Z" stroke-miterlimit="10"/></g><g transform="translate(-702,-126) scale(1,1)"><path fill="none" stroke="#000000" d="M 1344 449 L 1520 449" stroke-miterlimit="10"/></g><g transform="translate(-702,-126) scale(1,1)"><path fill="none" stroke="#000000" d="M 1344 459 L 1520 459" stroke-miterlimit="10"/></g><g transform="translate(-702,-126) scale(1,1)"><g><path fill="none" stroke="none"/><text fill="#000000" stroke="none" font-family="Arial" font-size="13px" font-style="normal" font-weight="bold" text-decoration="none" x="1390.0927734375" y="443.5">Filter Dialogue</text></g></g><g transform="translate(-702,-126) scale(1,1)"><rect fill="#C0C0C0" stroke="none" x="1351" y="543" width="176" height="44" opacity="0.2"/></g><g transform="translate(-702,-126) scale(1,1)"><rect fill="#ffffff" stroke="none" x="1344" y="536" width="176" height="44"/></g><g transform="translate(-702,-126) scale(1,1)"><path fill="none" stroke="#000000" d="M 1344 536 L 1520 536 L 1520 580 L 1344 580 L 1344 536 Z Z" stroke-miterlimit="10"/></g><g transform="translate(-702,-126) scale(1,1)"><path fill="none" stroke="#000000" d="M 1344 561 L 1520 561" stroke-miterlimit="10"/></g><g transform="translate(-702,-126) scale(1,1)"><path fill="none" stroke="#000000" d="M 1344 571 L 1520 571" stroke-miterlimit="10"/></g><g transform="translate(-702,-126) scale(1,1)"><g><path fill="none" stroke="none"/><text fill="#000000" stroke="none" font-family="Arial" font-size="13px" font-style="normal" font-weight="bold" text-decoration="none" x="1369.853271484375" y="555.5">Reservation Dialogue</text></g></g><g transform="translate(-702,-126) scale(1,1)"><rect fill="#C0C0C0" stroke="none" x="1351" y="303" width="175.86083984375" height="44" opacity="0.2"/></g><g transform="translate(-702,-126) scale(1,1)"><rect fill="#ffffff" stroke="none" x="1344" y="296" width="175.86083984375" height="44"/></g><g transform="translate(-702,-126) scale(1,1)"><path fill="none" stroke="#000000" d="M 1344 296 L 1519.86083984375 296 L 1519.86083984375 340 L 1344 340 L 1344 296 Z Z" stroke-miterlimit="10"/></g><g transform="translate(-702,-126) scale(1,1)"><path fill="none" stroke="#000000" d="M 1344 321 L 1519.86083984375 321" stroke-miterlimit="10"/></g><g transform="translate(-702,-126) scale(1,1)"><path fill="none" stroke="#000000" d="M 1344 331 L 1519.86083984375 331" stroke-miterlimit="10"/></g><g transform="translate(-702,-126) scale(1,1)"><g><path fill="none" stroke="none"/><text fill="#000000" stroke="none" font-family="Arial" font-size="13px" font-style="normal" font-weight="bold" text-decoration="none" x="1354.254150390625" y="315.5">Multi Reservation Dialogue</text></g></g><g transform="translate(-702,-126) scale(1,1)"><rect fill="#C0C0C0" stroke="none" x="1351" y="655" width="176" height="44" opacity="0.2"/></g><g transform="translate(-702,-126) scale(1,1)"><rect fill="#ffffff" stroke="none" x="1344" y="648" width="176" height="44"/></g><g transform="translate(-702,-126) scale(1,1)"><path fill="none" stroke="#000000" d="M 1344 648 L 1520 648 L 1520 692 L 1344 692 L 1344 648 Z Z" stroke-miterlimit="10"/></g><g transform="translate(-702,-126) scale(1,1)"><path fill="none" stroke="#000000" d="M 1344 673 L 1520 673" stroke-miterlimit="10"/></g><g transform="translate(-702,-126) scale(1,1)"><path fill="none" stroke="#000000" d="M 1344 683 L 1520 683" stroke-miterlimit="10"/></g><g transform="translate(-702,-126) scale(1,1)"><g><path fill="none" stroke="none"/><text fill="#000000" stroke="none" font-family="Arial" font-size="13px" font-style="normal" font-weight="bold" text-decoration="none" x="1381.04736328125" y="667.5">Booking Dialogue</text></g></g><g transform="translate(-702,-126) scale(1,1)"><rect fill="#C0C0C0" stroke="none" x="1351" y="191" width="176" height="44" opacity="0.2"/></g><g transform="translate(-702,-126) scale(1,1)"><rect fill="#ffffff" stroke="none" x="1344" y="184" width="176" height="44"/></g><g transform="translate(-702,-126) scale(1,1)"><path fill="none" stroke="#000000" d="M 1344 184 L 1520 184 L 1520 228 L 1344 228 L 1344 184 Z Z" stroke-miterlimit="10"/></g><g transform="translate(-702,-126) scale(1,1)"><path fill="none" stroke="#000000" d="M 1344 209 L 1520 209" stroke-miterlimit="10"/></g><g transform="translate(-702,-126) scale(1,1)"><path fill="none" stroke="#000000" d="M 1344 219 L 1520 219" stroke-miterlimit="10"/></g><g transform="translate(-702,-126) scale(1,1)"><g><path fill="none" stroke="none"/><text fill="#000000" stroke="none" font-family="Arial" font-size="13px" font-style="normal" font-weight="bold" text-decoration="none" x="1365.517822265625" y="203.5">Multi Booking Dialogue</text></g></g><g transform="translate(-702,-126) scale(1,1)"><path fill="none" stroke="#00a9ff" d="M 1225 456 L 1344 456" stroke-miterlimit="10"/></g><g transform="translate(-702,-126) scale(1,1)"><path fill="none" stroke="#00a9ff" d="M 1333.837325142376 460.209517756016 L 1344 456 L 1333.837325142376 451.790482243984" stroke-miterlimit="10"/></g><g transform="translate(-702,-126) scale(1,1)"><g><path fill="none" stroke="none"/><text fill="#00a9ff" stroke="none" font-family="Arial" font-size="13px" font-style="normal" font-weight="normal" text-decoration="none" x="1231.5" y="475.5">+[Einzelner Raum]</text></g></g><g transform="translate(-702,-126) scale(1,1)"><path fill="none" stroke="#d16800" d="M 1225 440 L 1344 440" stroke-miterlimit="10"/></g><g transform="translate(-702,-126) scale(1,1)"><path fill="none" stroke="#d16800" d="M 1333.837325142376 444.209517756016 L 1344 440 L 1333.837325142376 435.790482243984" stroke-miterlimit="10"/></g><g transform="translate(-702,-126) scale(1,1)"><g><path fill="none" stroke="none"/><text fill="#d16800" stroke="none" font-family="Arial" font-size="13px" font-style="normal" font-weight="normal" text-decoration="none" x="1230.5" y="436.5">+[Mehrere Räume]</text></g></g><g transform="translate(-702,-126) scale(1,1)"><path fill="none" stroke="#d16800" d="M 1432 424 L 1432 340" stroke-miterlimit="10"/></g><g transform="translate(-702,-126) scale(1,1)"><path fill="none" stroke="#d16800" d="M 1436.2095177560159 350.16267485762415 L 1432 340 L 1427.7904822439841 350.16267485762415" stroke-miterlimit="10"/></g><g transform="translate(-702,-126) scale(1,1)"><g><path fill="none" stroke="none"/><text fill="#d16800" stroke="none" font-family="Arial" font-size="13px" font-style="normal" font-weight="normal" text-decoration="none" x="1438.5" y="386.5">+[Akzeptieren]</text></g></g><g transform="translate(-702,-126) scale(1,1)"><path fill="none" stroke="#d16800" d="M 1432 296 L 1432 228" stroke-miterlimit="10"/></g><g transform="translate(-702,-126) scale(1,1)"><path fill="none" stroke="#d16800" d="M 1436.2095177560159 238.16267485762415 L 1432 228 L 1427.7904822439841 238.16267485762415" stroke-miterlimit="10"/></g><g transform="translate(-702,-126) scale(1,1)"><g><path fill="none" stroke="none"/><text fill="#d16800" stroke="none" font-family="Arial" font-size="13px" font-style="normal" font-weight="normal" text-decoration="none" x="1437.5" y="267.5">+[Buchen]</text></g></g><g transform="translate(-702,-126) scale(1,1)"><path fill="none" stroke="#d16800" d="M 1344 208 L 1208 208 M 1208 208 A 8 8 0 0 0 1200 216 L 1200 424" stroke-miterlimit="10"/></g><g transform="translate(-702,-126) scale(1,1)"><path fill="none" stroke="#d16800" d="M 1195.7904822439841 413.83732514237585 L 1200 424 L 1204.2095177560159 413.83732514237585" stroke-miterlimit="10"/></g><g transform="translate(-702,-126) scale(1,1)"><g><path fill="none" stroke="none"/><text fill="#d16800" stroke="none" font-family="Arial" font-size="13px" font-style="normal" font-weight="normal" text-decoration="none" x="1199.5" y="355.5">+[Abbrechen]</text></g></g><g transform="translate(-702,-126) scale(1,1)"><path fill="none" stroke="#d16800" d="M 1344 312 L 1208 312 M 1208 312 A 8 8 0 0 0 1200 320 L 1200 424" stroke-miterlimit="10"/></g><g transform="translate(-702,-126) scale(1,1)"><path fill="none" stroke="#d16800" d="M 1195.7904822439841 413.83732514237585 L 1200 424 L 1204.2095177560159 413.83732514237585" stroke-miterlimit="10"/></g><g transform="translate(-702,-126) scale(1,1)"><path fill="none" stroke="#00a9ff" d="M 1432 468 L 1432 536" stroke-miterlimit="10"/></g><g transform="translate(-702,-126) scale(1,1)"><path fill="none" stroke="#00a9ff" d="M 1427.7904822439841 525.8373251423759 L 1432 536 L 1436.2095177560159 525.8373251423759" stroke-miterlimit="10"/></g><g transform="translate(-702,-126) scale(1,1)"><g><path fill="none" stroke="none"/><text fill="#00a9ff" stroke="none" font-family="Arial" font-size="13px" font-style="normal" font-weight="normal" text-decoration="none" x="1439.5" y="507.5">+[Akzeptieren]</text></g></g><g transform="translate(-702,-126) scale(1,1)"><path fill="none" stroke="#00a9ff" d="M 1432 580 L 1432 648" stroke-miterlimit="10"/></g><g transform="translate(-702,-126) scale(1,1)"><path fill="none" stroke="#00a9ff" d="M 1427.7904822439841 637.8373251423759 L 1432 648 L 1436.2095177560159 637.8373251423759" stroke-miterlimit="10"/></g><g transform="translate(-702,-126) scale(1,1)"><g><path fill="none" stroke="none"/><text fill="#00a9ff" stroke="none" font-family="Arial" font-size="13px" font-style="normal" font-weight="normal" text-decoration="none" x="1437.5" y="620.5">+[Buchen]</text></g></g><g transform="translate(-702,-126) scale(1,1)"><path fill="none" stroke="#00a9ff" d="M 1344 670 L 1208 670 M 1208 670 A 8 8 0 0 1 1200 662 L 1200 468" stroke-miterlimit="10"/></g><g transform="translate(-702,-126) scale(1,1)"><path fill="none" stroke="#00a9ff" d="M 1204.2095177560159 478.16267485762415 L 1200 468 L 1195.7904822439841 478.16267485762415" stroke-miterlimit="10"/></g><g transform="translate(-702,-126) scale(1,1)"><g><path fill="none" stroke="none"/><text fill="#00a9ff" stroke="none" font-family="Arial" font-size="13px" font-style="normal" font-weight="normal" text-decoration="none" x="1199.5" y="532.5">+[Abbrechen]</text></g></g><g transform="translate(-702,-126) scale(1,1)"><path fill="none" stroke="#00a9ff" d="M 1344 558 L 1208 558 M 1208 558 A 8 8 0 0 1 1200 550 L 1200 468" stroke-miterlimit="10"/></g><g transform="translate(-702,-126) scale(1,1)"><path fill="none" stroke="#00a9ff" d="M 1204.2095177560159 478.16267485762415 L 1200 468 L 1195.7904822439841 478.16267485762415" stroke-miterlimit="10"/></g><g transform="translate(-702,-126) scale(1,1)"><rect fill="#C0C0C0" stroke="none" x="767" y="431" width="176" height="44" opacity="0.2"/></g><g transform="translate(-702,-126) scale(1,1)"><rect fill="#ffffff" stroke="none" x="760" y="424" width="176" height="44"/></g><g transform="translate(-702,-126) scale(1,1)"><path fill="none" stroke="#000000" d="M 760 424 L 936 424 L 936 468 L 760 468 L 760 424 Z Z" stroke-miterlimit="10"/></g><g transform="translate(-702,-126) scale(1,1)"><path fill="none" stroke="#000000" d="M 760 449 L 936 449" stroke-miterlimit="10"/></g><g transform="translate(-702,-126) scale(1,1)"><path fill="none" stroke="#000000" d="M 760 459 L 936 459" stroke-miterlimit="10"/></g><g transform="translate(-702,-126) scale(1,1)"><g><path fill="none" stroke="none"/><text fill="#000000" stroke="none" font-family="Arial" font-size="13px" font-style="normal" font-weight="bold" text-decoration="none" x="799.94189453125" y="443.5">Search Dialogue</text></g></g><g transform="translate(-702,-126) scale(1,1)"><path fill="none" stroke="#000000" d="M 1048 456 L 936 456" stroke-miterlimit="10"/></g><g transform="translate(-702,-126) scale(1,1)"><path fill="none" stroke="#000000" d="M 946.1626748576241 451.790482243984 L 936 456 L 946.1626748576241 460.209517756016" stroke-miterlimit="10"/></g><g transform="translate(-702,-126) scale(1,1)"><g><path fill="none" stroke="none"/><text fill="#000000" stroke="none" font-family="Arial" font-size="13px" font-style="normal" font-weight="normal" text-decoration="none" x="942.5" y="477.5">+[Raum Suchen]</text></g></g><g transform="translate(-702,-126) scale(1,1)"><rect fill="#C0C0C0" stroke="none" x="767" y="199" width="176" height="44" opacity="0.2"/></g><g transform="translate(-702,-126) scale(1,1)"><rect fill="#ffffff" stroke="none" x="760" y="192" width="176" height="44"/></g><g transform="translate(-702,-126) scale(1,1)"><path fill="none" stroke="#000000" d="M 760 192 L 936 192 L 936 236 L 760 236 L 760 192 Z Z" stroke-miterlimit="10"/></g><g transform="translate(-702,-126) scale(1,1)"><path fill="none" stroke="#000000" d="M 760 217 L 936 217" stroke-miterlimit="10"/></g><g transform="translate(-702,-126) scale(1,1)"><path fill="none" stroke="#000000" d="M 760 227 L 936 227" stroke-miterlimit="10"/></g><g transform="translate(-702,-126) scale(1,1)"><g><path fill="none" stroke="none"/><text fill="#000000" stroke="none" font-family="Arial" font-size="13px" font-style="normal" font-weight="bold" text-decoration="none" x="804.642333984375" y="211.5">Block Dialogue</text></g></g><g transform="translate(-702,-126) scale(1,1)"><path fill="none" stroke="#000000" d="M 847 424 L 847 236" stroke-miterlimit="10"/></g><g transform="translate(-702,-126) scale(1,1)"><path fill="none" stroke="#000000" d="M 851.209517756016 246.16267485762415 L 847 236 L 842.790482243984 246.16267485762415" stroke-miterlimit="10"/></g><g transform="translate(-702,-126) scale(1,1)"><g><path fill="none" stroke="none"/><text fill="#000000" stroke="none" font-family="Arial" font-size="13px" font-style="normal" font-weight="normal" text-decoration="none" x="766.5" y="335.5">+[Blockieren]</text></g></g><g transform="translate(-702,-126) scale(1,1)"><path fill="none" stroke="#000000" d="M 936 216 L 1064 216 M 1064 216 A 8 8 0 0 1 1072 224 L 1072 424" stroke-miterlimit="10"/></g><g transform="translate(-702,-126) scale(1,1)"><path fill="none" stroke="#000000" d="M 1067.7904822439841 413.83732514237585 L 1072 424 L 1076.2095177560159 413.83732514237585" stroke-miterlimit="10"/></g><g transform="translate(-702,-126) scale(1,1)"><g><path fill="none" stroke="none"/><text fill="#000000" stroke="none" font-family="Arial" font-size="13px" font-style="normal" font-weight="normal" text-decoration="none" x="983.5" y="276.5">+[Abbrechen]</text></g></g><g transform="translate(-702,-126) scale(1,1)"><rect fill="#C0C0C0" stroke="none" x="1343" y="935" width="176" height="44" opacity="0.2"/></g><g transform="translate(-702,-126) scale(1,1)"><rect fill="#e2e2e2" stroke="none" x="1336" y="928" width="176" height="44"/></g><g transform="translate(-702,-126) scale(1,1)"><path fill="none" stroke="#000000" d="M 1336 928 L 1512 928 L 1512 972 L 1336 972 L 1336 928 Z Z" stroke-miterlimit="10"/></g><g transform="translate(-702,-126) scale(1,1)"><path fill="none" stroke="#000000" d="M 1336 953 L 1512 953" stroke-miterlimit="10"/></g><g transform="translate(-702,-126) scale(1,1)"><path fill="none" stroke="#000000" d="M 1336 963 L 1512 963" stroke-miterlimit="10"/></g><g transform="translate(-702,-126) scale(1,1)"><g><path fill="none" stroke="none"/><text fill="#000000" stroke="none" font-family="Arial" font-size="13px" font-style="normal" font-weight="bold" text-decoration="none" x="1382.81005859375" y="947.5">Start Dialogue</text></g></g><g transform="translate(-702,-126) scale(1,1)"><rect fill="#C0C0C0" stroke="none" x="1063" y="935" width="176" height="44" opacity="0.2"/></g><g transform="translate(-702,-126) scale(1,1)"><rect fill="#ffffff" stroke="none" x="1056" y="928" width="176" height="44"/></g><g transform="translate(-702,-126) scale(1,1)"><path fill="none" stroke="#000000" d="M 1056 928 L 1232 928 L 1232 972 L 1056 972 L 1056 928 Z Z" stroke-miterlimit="10"/></g><g transform="translate(-702,-126) scale(1,1)"><path fill="none" stroke="#000000" d="M 1056 953 L 1232 953" stroke-miterlimit="10"/></g><g transform="translate(-702,-126) scale(1,1)"><path fill="none" stroke="#000000" d="M 1056 963 L 1232 963" stroke-miterlimit="10"/></g><g transform="translate(-702,-126) scale(1,1)"><g><path fill="none" stroke="none"/><text fill="#000000" stroke="none" font-family="Arial" font-size="13px" font-style="normal" font-weight="bold" text-decoration="none" x="1095.94189453125" y="947.5">Search Dialogue</text></g></g><g transform="translate(-702,-126) scale(1,1)"><rect fill="#C0C0C0" stroke="none" x="1167" y="847" width="176" height="44" opacity="0.2"/></g><g transform="translate(-702,-126) scale(1,1)"><rect fill="#ffffff" stroke="none" x="1160" y="840" width="176" height="44"/></g><g transform="translate(-702,-126) scale(1,1)"><path fill="none" stroke="#000000" d="M 1160 840 L 1336 840 L 1336 884 L 1160 884 L 1160 840 Z Z" stroke-miterlimit="10"/></g><g transform="translate(-702,-126) scale(1,1)"><path fill="none" stroke="#000000" d="M 1160 865 L 1336 865" stroke-miterlimit="10"/></g><g transform="translate(-702,-126) scale(1,1)"><path fill="none" stroke="#000000" d="M 1160 875 L 1336 875" stroke-miterlimit="10"/></g><g transform="translate(-702,-126) scale(1,1)"><g><path fill="none" stroke="none"/><text fill="#000000" stroke="none" font-family="Arial" font-size="13px" font-style="normal" font-weight="bold" text-decoration="none" x="1189.826904296875" y="859.5">Add Room Dialogue</text></g></g><g transform="translate(-702,-126) scale(1,1)"><rect fill="#C0C0C0" stroke="none" x="831" y="879" width="176" height="44" opacity="0.2"/></g><g transform="translate(-702,-126) scale(1,1)"><rect fill="#ffffff" stroke="none" x="824" y="872" width="176" height="44"/></g><g transform="translate(-702,-126) scale(1,1)"><path fill="none" stroke="#000000" d="M 824 872 L 1000 872 L 1000 916 L 824 916 L 824 872 Z Z" stroke-miterlimit="10"/></g><g transform="translate(-702,-126) scale(1,1)"><path fill="none" stroke="#000000" d="M 824 897 L 1000 897" stroke-miterlimit="10"/></g><g transform="translate(-702,-126) scale(1,1)"><path fill="none" stroke="#000000" d="M 824 907 L 1000 907" stroke-miterlimit="10"/></g><g transform="translate(-702,-126) scale(1,1)"><g><path fill="none" stroke="none"/><text fill="#000000" stroke="none" font-family="Arial" font-size="13px" font-style="normal" font-weight="bold" text-decoration="none" x="854.19189453125" y="891.5">Edit Room Dialogue</text></g></g><g transform="translate(-702,-126) scale(1,1)"><rect fill="#C0C0C0" stroke="none" x="831" y="815" width="176" height="44" opacity="0.2"/></g><g transform="translate(-702,-126) scale(1,1)"><rect fill="#ffffff" stroke="none" x="824" y="808" width="176" height="44"/></g><g transform="translate(-702,-126) scale(1,1)"><path fill="none" stroke="#000000" d="M 824 808 L 1000 808 L 1000 852 L 824 852 L 824 808 Z Z" stroke-miterlimit="10"/></g><g transform="translate(-702,-126) scale(1,1)"><path fill="none" stroke="#000000" d="M 824 833 L 1000 833" stroke-miterlimit="10"/></g><g transform="translate(-702,-126) scale(1,1)"><path fill="none" stroke="#000000" d="M 824 843 L 1000 843" stroke-miterlimit="10"/></g><g transform="translate(-702,-126) scale(1,1)"><g><path fill="none" stroke="none"/><text fill="#000000" stroke="none" font-family="Arial" font-size="13px" font-style="normal" font-weight="bold" text-decoration="none" x="846.603271484375" y="827.5">Delete Room Dialogue</text></g></g><g transform="translate(-702,-126) scale(1,1)"><rect fill="#C0C0C0" stroke="none" x="1167" y="1023" width="176" height="44" opacity="0.2"/></g><g transform="translate(-702,-126) scale(1,1)"><rect fill="#ffffff" stroke="none" x="1160" y="1016" width="176" height="44"/></g><g transform="translate(-702,-126) scale(1,1)"><path fill="none" stroke="#000000" d="M 1160 1016 L 1336 1016 L 1336 1060 L 1160 1060 L 1160 1016 Z Z" stroke-miterlimit="10"/></g><g transform="translate(-702,-126) scale(1,1)"><path fill="none" stroke="#000000" d="M 1160 1041 L 1336 1041" stroke-miterlimit="10"/></g><g transform="translate(-702,-126) scale(1,1)"><path fill="none" stroke="#000000" d="M 1160 1051 L 1336 1051" stroke-miterlimit="10"/></g><g transform="translate(-702,-126) scale(1,1)"><g><path fill="none" stroke="none"/><text fill="#000000" stroke="none" font-family="Arial" font-size="13px" font-style="normal" font-weight="bold" text-decoration="none" x="1176.090576171875" y="1035.5">Add Equipment Dialogue</text></g></g><g transform="translate(-702,-126) scale(1,1)"><rect fill="#C0C0C0" stroke="none" x="831" y="991" width="176" height="44" opacity="0.2"/></g><g transform="translate(-702,-126) scale(1,1)"><rect fill="#ffffff" stroke="none" x="824" y="984" width="176" height="44"/></g><g transform="translate(-702,-126) scale(1,1)"><path fill="none" stroke="#000000" d="M 824 984 L 1000 984 L 1000 1028 L 824 1028 L 824 984 Z Z" stroke-miterlimit="10"/></g><g transform="translate(-702,-126) scale(1,1)"><path fill="none" stroke="#000000" d="M 824 1009 L 1000 1009" stroke-miterlimit="10"/></g><g transform="translate(-702,-126) scale(1,1)"><path fill="none" stroke="#000000" d="M 824 1019 L 1000 1019" stroke-miterlimit="10"/></g><g transform="translate(-702,-126) scale(1,1)"><g><path fill="none" stroke="none"/><text fill="#000000" stroke="none" font-family="Arial" font-size="13px" font-style="normal" font-weight="bold" text-decoration="none" x="840.45556640625" y="1003.5">Edit Equipment Dialogue</text></g></g><g transform="translate(-702,-126) scale(1,1)"><rect fill="#C0C0C0" stroke="none" x="831" y="1055" width="177.3017578125" height="44" opacity="0.2"/></g><g transform="translate(-702,-126) scale(1,1)"><rect fill="#ffffff" stroke="none" x="824" y="1048" width="177.3017578125" height="44"/></g><g transform="translate(-702,-126) scale(1,1)"><path fill="none" stroke="#000000" d="M 824 1048 L 1001.3017578125 1048 L 1001.3017578125 1092 L 824 1092 L 824 1048 Z Z" stroke-miterlimit="10"/></g><g transform="translate(-702,-126) scale(1,1)"><path fill="none" stroke="#000000" d="M 824 1073 L 1001.3017578125 1073" stroke-miterlimit="10"/></g><g transform="translate(-702,-126) scale(1,1)"><path fill="none" stroke="#000000" d="M 824 1083 L 1001.3017578125 1083" stroke-miterlimit="10"/></g><g transform="translate(-702,-126) scale(1,1)"><g><path fill="none" stroke="none"/><text fill="#000000" stroke="none" font-family="Arial" font-size="13px" font-style="normal" font-weight="bold" text-decoration="none" x="833.517822265625" y="1067.5">Delete Equipment Dialogue</text></g></g><g transform="translate(-702,-126) scale(1,1)"><path fill="none" stroke="#000000" d="M 1104 972 L 1104 1000 M 1104 1000 A 8 8 0 0 1 1096 1008 L 1000 1008" stroke-miterlimit="10"/></g><g transform="translate(-702,-126) scale(1,1)"><path fill="none" stroke="#000000" d="M 1010.1626748576241 1003.790482243984 L 1000 1008 L 1010.1626748576241 1012.209517756016" stroke-miterlimit="10"/></g><g transform="translate(-702,-126) scale(1,1)"><g><path fill="none" stroke="none"/><text fill="#000000" stroke="none" font-family="Arial" font-size="13px" font-style="normal" font-weight="normal" text-decoration="none" x="1023.5" y="1020.5">+[Bearbeiten]</text></g></g><g transform="translate(-702,-126) scale(1,1)"><path fill="none" stroke="#000000" d="M 1144 972 L 1144 1062 M 1144 1062 A 8 8 0 0 1 1136 1070 L 1001 1070" stroke-miterlimit="10"/></g><g transform="translate(-702,-126) scale(1,1)"><path fill="none" stroke="#000000" d="M 1011.1626748576241 1065.7904822439841 L 1001 1070 L 1011.1626748576241 1074.2095177560159" stroke-miterlimit="10"/></g><g transform="translate(-702,-126) scale(1,1)"><g><path fill="none" stroke="none"/><text fill="#000000" stroke="none" font-family="Arial" font-size="13px" font-style="normal" font-weight="normal" text-decoration="none" x="1071.5" y="1084.5">+[Löschen]</text></g></g><g transform="translate(-702,-126) scale(1,1)"><path fill="none" stroke="#000000" d="M 1104 928 L 1104 904 M 1104 904 A 8 8 0 0 0 1096 896 L 1000 896" stroke-miterlimit="10"/></g><g transform="translate(-702,-126) scale(1,1)"><path fill="none" stroke="#000000" d="M 1010.1626748576241 891.790482243984 L 1000 896 L 1010.1626748576241 900.209517756016" stroke-miterlimit="10"/></g><g transform="translate(-702,-126) scale(1,1)"><g><path fill="none" stroke="none"/><text fill="#000000" stroke="none" font-family="Arial" font-size="13px" font-style="normal" font-weight="normal" text-decoration="none" x="1023.5" y="891.5">+[Bearbeiten]</text></g></g><g transform="translate(-702,-126) scale(1,1)"><path fill="none" stroke="#000000" d="M 1144 928 L 1144 840 M 1144 840 A 8 8 0 0 0 1136 832 L 1000 832" stroke-miterlimit="10"/></g><g transform="translate(-702,-126) scale(1,1)"><path fill="none" stroke="#000000" d="M 1010.1626748576241 827.790482243984 L 1000 832 L 1010.1626748576241 836.209517756016" stroke-miterlimit="10"/></g><g transform="translate(-702,-126) scale(1,1)"><g><path fill="none" stroke="none"/><text fill="#000000" stroke="none" font-family="Arial" font-size="13px" font-style="normal" font-weight="normal" text-decoration="none" x="1071.5" y="827.5">+[Löschen]</text></g></g><g transform="translate(-702,-126) scale(1,1)"><path fill="none" stroke="#000000" d="M 1336 848 L 1408 848 M 1408 848 A 8 8 0 0 1 1416 856 L 1416 928" stroke-miterlimit="10"/></g><g transform="translate(-702,-126) scale(1,1)"><path fill="none" stroke="#000000" d="M 1411.7904822439841 917.8373251423759 L 1416 928 L 1420.2095177560159 917.8373251423759" stroke-miterlimit="10"/></g><g transform="translate(-702,-126) scale(1,1)"><path fill="none" stroke="#000000" d="M 1376 928 L 1376 880 M 1376 880 A 8 8 0 0 0 1368 872 L 1336 872" stroke-miterlimit="10"/></g><g transform="translate(-702,-126) scale(1,1)"><path fill="none" stroke="#000000" d="M 1346.162674857624 867.790482243984 L 1336 872 L 1346.162674857624 876.209517756016" stroke-miterlimit="10"/></g><g transform="translate(-702,-126) scale(1,1)"><g><path fill="none" stroke="none"/><text fill="#000000" stroke="none" font-family="Arial" font-size="13px" font-style="normal" font-weight="normal" text-decoration="none" x="1294.5" y="900.5">+[Hinzufügen]</text></g></g><g transform="translate(-702,-126) scale(1,1)"><path fill="none" stroke="#000000" d="M 1378 972 L 1378 1016 M 1378 1016 A 8 8 0 0 1 1370 1024 L 1336 1024" stroke-miterlimit="10"/></g><g transform="translate(-702,-126) scale(1,1)"><path fill="none" stroke="#000000" d="M 1346.162674857624 1019.790482243984 L 1336 1024 L 1346.162674857624 1028.2095177560159" stroke-miterlimit="10"/></g><g transform="translate(-702,-126) scale(1,1)"><g><path fill="none" stroke="none"/><text fill="#000000" stroke="none" font-family="Arial" font-size="13px" font-style="normal" font-weight="normal" text-decoration="none" x="1294.5" y="1011.5">+[Hinzufügen]</text></g></g><g transform="translate(-702,-126) scale(1,1)"><path fill="none" stroke="#000000" d="M 1336 1048 L 1408 1048 M 1408 1048 A 8 8 0 0 0 1416 1040 L 1416 972" stroke-miterlimit="10"/></g><g transform="translate(-702,-126) scale(1,1)"><path fill="none" stroke="#000000" d="M 1420.2095177560159 982.1626748576241 L 1416 972 L 1411.7904822439841 982.1626748576241" stroke-miterlimit="10"/></g><g transform="translate(-702,-126) scale(1,1)"><path fill="none" stroke="#000000" d="M 904 1092 L 904 1112 M 904 1112 A 8 8 0 0 0 912 1120 L 1408 1120 M 1408 1120 A 8 8 0 0 0 1416 1112 L 1416 972" stroke-miterlimit="10"/></g><g transform="translate(-702,-126) scale(1,1)"><path fill="none" stroke="#000000" d="M 1420.2095177560159 982.1626748576241 L 1416 972 L 1411.7904822439841 982.1626748576241" stroke-miterlimit="10"/></g><g transform="translate(-702,-126) scale(1,1)"><path fill="none" stroke="#000000" d="M 824 1008 L 800 1008 M 800 1008 A 8 8 0 0 0 792 1016 L 792 1112 M 792 1112 A 8 8 0 0 0 800 1120 L 1408 1120 M 1408 1120 A 8 8 0 0 0 1416 1112 L 1416 972" stroke-miterlimit="10"/></g><g transform="translate(-702,-126) scale(1,1)"><path fill="none" stroke="#000000" d="M 1420.2095177560159 982.1626748576241 L 1416 972 L 1411.7904822439841 982.1626748576241" stroke-miterlimit="10"/></g><g transform="translate(-702,-126) scale(1,1)"><g><path fill="none" stroke="none"/><text fill="#000000" stroke="none" font-family="Arial" font-size="13px" font-style="normal" font-weight="normal" text-decoration="none" x="1063.5" y="1138.5">+[Abbrechen]|[Bestätigen]</text></g></g><g transform="translate(-702,-126) scale(1,1)"><path fill="none" stroke="#000000" d="M 912 808 L 912 792 M 912 792 A 8 8 0 0 1 920 784 L 1408 784 M 1408 784 A 8 8 0 0 1 1416 792 L 1416 928" stroke-miterlimit="10"/></g><g transform="translate(-702,-126) scale(1,1)"><path fill="none" stroke="#000000" d="M 1411.7904822439841 917.8373251423759 L 1416 928 L 1420.2095177560159 917.8373251423759" stroke-miterlimit="10"/></g><g transform="translate(-702,-126) scale(1,1)"><path fill="none" stroke="#000000" d="M 824 888 L 800 888 M 800 888 A 8 8 0 0 1 792 880 L 792 792 M 792 792 A 8 8 0 0 1 800 784 L 1408 784 M 1408 784 A 8 8 0 0 1 1416 792 L 1416 928" stroke-miterlimit="10"/></g><g transform="translate(-702,-126) scale(1,1)"><path fill="none" stroke="#000000" d="M 1411.7904822439841 917.8373251423759 L 1416 928 L 1420.2095177560159 917.8373251423759" stroke-miterlimit="10"/></g><g transform="translate(-702,-126) scale(1,1)"><g><path fill="none" stroke="none"/><text fill="#000000" stroke="none" font-family="Arial" font-size="13px" font-style="normal" font-weight="normal" text-decoration="none" x="1055.5" y="772.5">+[Abbrechen]|[Bestätigen]</text></g></g><g transform="translate(-702,-126) scale(1,1)"><path fill="none" stroke="#00a9ff" d="M 1360 468 L 1360 488 M 1360 488 A 8 8 0 0 1 1352 496 L 1208 496 M 1208 496 A 8 8 0 0 1 1200 488 L 1200 468" stroke-miterlimit="10"/></g><g transform="translate(-702,-126) scale(1,1)"><path fill="none" stroke="#00a9ff" d="M 1204.2095177560159 478.16267485762415 L 1200 468 L 1195.7904822439841 478.16267485762415" stroke-miterlimit="10"/></g><g transform="translate(-702,-126) scale(1,1)"><path fill="none" stroke="#000000" d="M 1336 960 L 1232 960" stroke-miterlimit="10"/></g><g transform="translate(-702,-126) scale(1,1)"><path fill="none" stroke="#000000" d="M 1242.162674857624 955.790482243984 L 1232 960 L 1242.162674857624 964.209517756016" stroke-miterlimit="10"/></g><g transform="translate(-702,-126) scale(1,1)"><g><path fill="none" stroke="none"/><text fill="#000000" stroke="none" font-family="Arial" font-size="13px" font-style="normal" font-weight="normal" text-decoration="none" x="1253.5" y="981.5">+[Suchen]</text></g></g><g transform="translate(-702,-126) scale(1,1)"><path fill="none" stroke="#000000" d="M 1232 944 L 1336 944" stroke-miterlimit="10"/></g><g transform="translate(-702,-126) scale(1,1)"><path fill="none" stroke="#000000" d="M 1325.837325142376 948.209517756016 L 1336 944 L 1325.837325142376 939.790482243984" stroke-miterlimit="10"/></g><g transform="translate(-702,-126) scale(1,1)"><g><path fill="none" stroke="none"/><text fill="#000000" stroke="none" font-family="Arial" font-size="13px" font-style="normal" font-weight="normal" text-decoration="none" x="1245.5" y="935.5">+[Abbrechen]</text></g></g><g transform="translate(-702,-126) scale(1,1)"><path fill="none" stroke="#000000" d="M 936 440 L 1048 440" stroke-miterlimit="10"/></g><g transform="translate(-702,-126) scale(1,1)"><path fill="none" stroke="#000000" d="M 1037.837325142376 444.209517756016 L 1048 440 L 1037.837325142376 435.790482243984" stroke-miterlimit="10"/></g><g transform="translate(-702,-126) scale(1,1)"><g><path fill="none" stroke="none"/><text fill="#000000" stroke="none" font-family="Arial" font-size="13px" font-style="normal" font-weight="normal" text-decoration="none" x="952.5" y="427.5">+[Abbrechen]</text></g></g><g transform="translate(-702,-126) scale(1,1)"><path fill="none" stroke="#d16800" d="M 1360 424 L 1360 400 M 1360 400 A 8 8 0 0 0 1352 392 L 1208 392 M 1208 392 A 8 8 0 0 0 1200 400 L 1200 424" stroke-miterlimit="10"/></g><g transform="translate(-702,-126) scale(1,1)"><path fill="none" stroke="#d16800" d="M 1195.7904822439841 413.83732514237585 L 1200 424 L 1204.2095177560159 413.83732514237585" stroke-miterlimit="10"/></g></g></svg>