<svg version="1.1" xmlns="http://www.w3.org/2000/svg" xmlns:xlink="http://www.w3.org/1999/xlink" width="1116" height="1051"><defs/><g><g transform="translate(-702,-126) scale(1,1)"><path fill="none" stroke="#000000" d="M 712 136 L 1256 136 L 1256 720 L 712 720 L 712 136" stroke-miterlimit="10"/></g><g transform="translate(-702,-126) scale(1,1)"><path fill="#ffffff" stroke="none" d="M 712 136 L 712 158 L 809.66259765625 158 L 820.66259765625 147 L 820.66259765625 136 L 712 136"/></g><g transform="translate(-702,-126) scale(1,1)"><path fill="none" stroke="#000000" d="M 712 136 L 712 158 L 809.66259765625 158 L 820.66259765625 147 L 820.66259765625 136 L 712 136 L 712 136" stroke-miterlimit="10"/></g><g transform="translate(-702,-126) scale(1,1)"><g><path fill="none" stroke="none"/><text fill="#000000" stroke="none" font-family="Arial" font-size="13px" font-style="normal" font-weight="normal" text-decoration="none" x="723" y="153.5">instituteSpace</text></g></g><g transform="translate(-702,-126) scale(1,1)"><g><path fill="none" stroke="none"/><text fill="#000000" stroke="none" font-family="Arial" font-size="13px" font-style="normal" font-weight="bold" text-decoration="none" x="717" y="153.5"></text></g></g><g transform="translate(-702,-126) scale(1,1)"><path fill="none" stroke="#000000" d="M 1264 136 L 1808 136 L 1808 720 L 1264 720 L 1264 136" stroke-miterlimit="10"/></g><g transform="translate(-702,-126) scale(1,1)"><path fill="#ffffff" stroke="none" d="M 1264 136 L 1264 158 L 1342.14990234375 158 L 1353.14990234375 147 L 1353.14990234375 136 L 1264 136"/></g><g transform="translate(-702,-126) scale(1,1)"><path fill="none" stroke="#000000" d="M 1264 136 L 1264 158 L 1342.14990234375 158 L 1353.14990234375 147 L 1353.14990234375 136 L 1264 136 L 1264 136" stroke-miterlimit="10"/></g><g transform="translate(-702,-126) scale(1,1)"><g><path fill="none" stroke="none"/><text fill="#000000" stroke="none" font-family="Arial" font-size="13px" font-style="normal" font-weight="normal" text-decoration="none" x="1275" y="153.5">userSpace</text></g></g><g transform="translate(-702,-126) scale(1,1)"><g><path fill="none" stroke="none"/><text fill="#000000" stroke="none" font-family="Arial" font-size="13px" font-style="normal" font-weight="bold" text-decoration="none" x="1269" y="153.5"></text></g></g><g transform="translate(-702,-126) scale(1,1)"><path fill="none" stroke="#000000" d="M 712 728 L 1808 728 L 1808 1167 L 712 1167 L 712 728" stroke-miterlimit="10"/></g><g transform="translate(-702,-126) scale(1,1)"><path fill="#ffffff" stroke="none" d="M 712 728 L 712 750 L 800.26806640625 750 L 811.26806640625 739 L 811.26806640625 728 L 712 728"/></g><g transform="translate(-702,-126) scale(1,1)"><path fill="none" stroke="#000000" d="M 712 728 L 712 750 L 800.26806640625 750 L 811.26806640625 739 L 811.26806640625 728 L 712 728 L 712 728" stroke-miterlimit="10"/></g><g transform="translate(-702,-126) scale(1,1)"><g><path fill="none" stroke="none"/><text fill="#000000" stroke="none" font-family="Arial" font-size="13px" font-style="normal" font-weight="normal" text-decoration="none" x="723" y="745.5">adminSpace</text></g></g><g transform="translate(-702,-126) scale(1,1)"><g><path fill="none" stroke="none"/><text fill="#000000" stroke="none" font-family="Arial" font-size="13px" font-style="normal" font-weight="bold" text-decoration="none" x="717" y="745.5"></text></g></g><g transform="translate(-702,-126) scale(1,1)"><rect fill="#C0C0C0" stroke="none" x="1175" y="431" width="177.12451171875" height="44" opacity="0.2"/></g><g transform="translate(-702,-126) scale(1,1)"><rect fill="#e2e2e2" stroke="none" x="1168" y="424" width="177.12451171875" height="44"/></g><g transform="translate(-702,-126) scale(1,1)"><path fill="none" stroke="#000000" d="M 1168 424 L 1345.12451171875 424 L 1345.12451171875 468 L 1168 468 L 1168 424 Z Z" stroke-miterlimit="10"/></g><g transform="translate(-702,-126) scale(1,1)"><path fill="none" stroke="#000000" d="M 1168 449 L 1345.12451171875 449" stroke-miterlimit="10"/></g><g transform="translate(-702,-126) scale(1,1)"><path fill="none" stroke="#000000" d="M 1168 459 L 1345.12451171875 459" stroke-miterlimit="10"/></g><g transform="translate(-702,-126) scale(1,1)"><g><path fill="none" stroke="none"/><text fill="#000000" stroke="none" font-family="Arial" font-size="13px" font-style="normal" font-weight="bold" text-decoration="none" x="1215.372314453125" y="443.5">Start Dialogue</text></g></g><g transform="translate(-702,-126) scale(1,1)"><rect fill="#C0C0C0" stroke="none" x="1471" y="431" width="176" height="44" opacity="0.2"/></g><g transform="translate(-702,-126) scale(1,1)"><rect fill="#ffffff" stroke="none" x="1464" y="424" width="176" height="44"/></g><g transform="translate(-702,-126) scale(1,1)"><path fill="none" stroke="#000000" d="M 1464 424 L 1640 424 L 1640 468 L 1464 468 L 1464 424 Z Z" stroke-miterlimit="10"/></g><g transform="translate(-702,-126) scale(1,1)"><path fill="none" stroke="#000000" d="M 1464 449 L 1640 449" stroke-miterlimit="10"/></g><g transform="translate(-702,-126) scale(1,1)"><path fill="none" stroke="#000000" d="M 1464 459 L 1640 459" stroke-miterlimit="10"/></g><g transform="translate(-702,-126) scale(1,1)"><g><path fill="none" stroke="none"/><text fill="#000000" stroke="none" font-family="Arial" font-size="13px" font-style="normal" font-weight="bold" text-decoration="none" x="1510.0927734375" y="443.5">Filter Dialogue</text></g></g><g transform="translate(-702,-126) scale(1,1)"><rect fill="#C0C0C0" stroke="none" x="1471" y="543" width="176" height="44" opacity="0.2"/></g><g transform="translate(-702,-126) scale(1,1)"><rect fill="#ffffff" stroke="none" x="1464" y="536" width="176" height="44"/></g><g transform="translate(-702,-126) scale(1,1)"><path fill="none" stroke="#000000" d="M 1464 536 L 1640 536 L 1640 580 L 1464 580 L 1464 536 Z Z" stroke-miterlimit="10"/></g><g transform="translate(-702,-126) scale(1,1)"><path fill="none" stroke="#000000" d="M 1464 561 L 1640 561" stroke-miterlimit="10"/></g><g transform="translate(-702,-126) scale(1,1)"><path fill="none" stroke="#000000" d="M 1464 571 L 1640 571" stroke-miterlimit="10"/></g><g transform="translate(-702,-126) scale(1,1)"><g><path fill="none" stroke="none"/><text fill="#000000" stroke="none" font-family="Arial" font-size="13px" font-style="normal" font-weight="bold" text-decoration="none" x="1489.853271484375" y="555.5">Reservation Dialogue</text></g></g><g transform="translate(-702,-126) scale(1,1)"><rect fill="#C0C0C0" stroke="none" x="1471" y="303" width="175.86083984375" height="44" opacity="0.2"/></g><g transform="translate(-702,-126) scale(1,1)"><rect fill="#ffffff" stroke="none" x="1464" y="296" width="175.86083984375" height="44"/></g><g transform="translate(-702,-126) scale(1,1)"><path fill="none" stroke="#000000" d="M 1464 296 L 1639.86083984375 296 L 1639.86083984375 340 L 1464 340 L 1464 296 Z Z" stroke-miterlimit="10"/></g><g transform="translate(-702,-126) scale(1,1)"><path fill="none" stroke="#000000" d="M 1464 321 L 1639.86083984375 321" stroke-miterlimit="10"/></g><g transform="translate(-702,-126) scale(1,1)"><path fill="none" stroke="#000000" d="M 1464 331 L 1639.86083984375 331" stroke-miterlimit="10"/></g><g transform="translate(-702,-126) scale(1,1)"><g><path fill="none" stroke="none"/><text fill="#000000" stroke="none" font-family="Arial" font-size="13px" font-style="normal" font-weight="bold" text-decoration="none" x="1474.254150390625" y="315.5">Multi Reservation Dialogue</text></g></g><g transform="translate(-702,-126) scale(1,1)"><rect fill="#C0C0C0" stroke="none" x="1471" y="655" width="176" height="44" opacity="0.2"/></g><g transform="translate(-702,-126) scale(1,1)"><rect fill="#ffffff" stroke="none" x="1464" y="648" width="176" height="44"/></g><g transform="translate(-702,-126) scale(1,1)"><path fill="none" stroke="#000000" d="M 1464 648 L 1640 648 L 1640 692 L 1464 692 L 1464 648 Z Z" stroke-miterlimit="10"/></g><g transform="translate(-702,-126) scale(1,1)"><path fill="none" stroke="#000000" d="M 1464 673 L 1640 673" stroke-miterlimit="10"/></g><g transform="translate(-702,-126) scale(1,1)"><path fill="none" stroke="#000000" d="M 1464 683 L 1640 683" stroke-miterlimit="10"/></g><g transform="translate(-702,-126) scale(1,1)"><g><path fill="none" stroke="none"/><text fill="#000000" stroke="none" font-family="Arial" font-size="13px" font-style="normal" font-weight="bold" text-decoration="none" x="1501.04736328125" y="667.5">Booking Dialogue</text></g></g><g transform="translate(-702,-126) scale(1,1)"><rect fill="#C0C0C0" stroke="none" x="1471" y="191" width="176" height="44" opacity="0.2"/></g><g transform="translate(-702,-126) scale(1,1)"><rect fill="#ffffff" stroke="none" x="1464" y="184" width="176" height="44"/></g><g transform="translate(-702,-126) scale(1,1)"><path fill="none" stroke="#000000" d="M 1464 184 L 1640 184 L 1640 228 L 1464 228 L 1464 184 Z Z" stroke-miterlimit="10"/></g><g transform="translate(-702,-126) scale(1,1)"><path fill="none" stroke="#000000" d="M 1464 209 L 1640 209" stroke-miterlimit="10"/></g><g transform="translate(-702,-126) scale(1,1)"><path fill="none" stroke="#000000" d="M 1464 219 L 1640 219" stroke-miterlimit="10"/></g><g transform="translate(-702,-126) scale(1,1)"><g><path fill="none" stroke="none"/><text fill="#000000" stroke="none" font-family="Arial" font-size="13px" font-style="normal" font-weight="bold" text-decoration="none" x="1485.517822265625" y="203.5">Multi Booking Dialogue</text></g></g><g transform="translate(-702,-126) scale(1,1)"><path fill="none" stroke="#00a9ff" d="M 1345 456 L 1464 456" stroke-miterlimit="10"/></g><g transform="translate(-702,-126) scale(1,1)"><path fill="none" stroke="#00a9ff" d="M 1453.837325142376 460.209517756016 L 1464 456 L 1453.837325142376 451.790482243984" stroke-miterlimit="10"/></g><g transform="translate(-702,-126) scale(1,1)"><g><path fill="none" stroke="none"/><text fill="#00a9ff" stroke="none" font-family="Arial" font-size="13px" font-style="normal" font-weight="normal" text-decoration="none" x="1351.5" y="475.5">+[Einzelner Raum]</text></g></g><g transform="translate(-702,-126) scale(1,1)"><path fill="none" stroke="#d16800" d="M 1345 440 L 1464 440" stroke-miterlimit="10"/></g><g transform="translate(-702,-126) scale(1,1)"><path fill="none" stroke="#d16800" d="M 1453.837325142376 444.209517756016 L 1464 440 L 1453.837325142376 435.790482243984" stroke-miterlimit="10"/></g><g transform="translate(-702,-126) scale(1,1)"><g><path fill="none" stroke="none"/><text fill="#d16800" stroke="none" font-family="Arial" font-size="13px" font-style="normal" font-weight="normal" text-decoration="none" x="1350.5" y="436.5">+[Mehrere Räume]</text></g></g><g transform="translate(-702,-126) scale(1,1)"><path fill="none" stroke="#d16800" d="M 1552 424 L 1552 340" stroke-miterlimit="10"/></g><g transform="translate(-702,-126) scale(1,1)"><path fill="none" stroke="#d16800" d="M 1556.2095177560159 350.16267485762415 L 1552 340 L 1547.7904822439841 350.16267485762415" stroke-miterlimit="10"/></g><g transform="translate(-702,-126) scale(1,1)"><g><path fill="none" stroke="none"/><text fill="#d16800" stroke="none" font-family="Arial" font-size="13px" font-style="normal" font-weight="normal" text-decoration="none" x="1558.5" y="386.5">+[Akzeptieren]</text></g></g><g transform="translate(-702,-126) scale(1,1)"><path fill="none" stroke="#d16800" d="M 1552 296 L 1552 228" stroke-miterlimit="10"/></g><g transform="translate(-702,-126) scale(1,1)"><path fill="none" stroke="#d16800" d="M 1556.2095177560159 238.16267485762415 L 1552 228 L 1547.7904822439841 238.16267485762415" stroke-miterlimit="10"/></g><g transform="translate(-702,-126) scale(1,1)"><g><path fill="none" stroke="none"/><text fill="#d16800" stroke="none" font-family="Arial" font-size="13px" font-style="normal" font-weight="normal" text-decoration="none" x="1557.5" y="267.5">+[Buchen]</text></g></g><g transform="translate(-702,-126) scale(1,1)"><path fill="none" stroke="#d16800" d="M 1464 208 L 1328 208 M 1328 208 A 8 8 0 0 0 1320 216 L 1320 424" stroke-miterlimit="10"/></g><g transform="translate(-702,-126) scale(1,1)"><path fill="none" stroke="#d16800" d="M 1315.7904822439841 413.83732514237585 L 1320 424 L 1324.2095177560159 413.83732514237585" stroke-miterlimit="10"/></g><g transform="translate(-702,-126) scale(1,1)"><g><path fill="none" stroke="none"/><text fill="#d16800" stroke="none" font-family="Arial" font-size="13px" font-style="normal" font-weight="normal" text-decoration="none" x="1319.5" y="355.5">+[Abbrechen]</text></g></g><g transform="translate(-702,-126) scale(1,1)"><path fill="none" stroke="#d16800" d="M 1464 312 L 1328 312 M 1328 312 A 8 8 0 0 0 1320 320 L 1320 424" stroke-miterlimit="10"/></g><g transform="translate(-702,-126) scale(1,1)"><path fill="none" stroke="#d16800" d="M 1315.7904822439841 413.83732514237585 L 1320 424 L 1324.2095177560159 413.83732514237585" stroke-miterlimit="10"/></g><g transform="translate(-702,-126) scale(1,1)"><path fill="none" stroke="#00a9ff" d="M 1552 468 L 1552 536" stroke-miterlimit="10"/></g><g transform="translate(-702,-126) scale(1,1)"><path fill="none" stroke="#00a9ff" d="M 1547.7904822439841 525.8373251423759 L 1552 536 L 1556.2095177560159 525.8373251423759" stroke-miterlimit="10"/></g><g transform="translate(-702,-126) scale(1,1)"><g><path fill="none" stroke="none"/><text fill="#00a9ff" stroke="none" font-family="Arial" font-size="13px" font-style="normal" font-weight="normal" text-decoration="none" x="1559.5" y="507.5">+[Akzeptieren]</text></g></g><g transform="translate(-702,-126) scale(1,1)"><path fill="none" stroke="#00a9ff" d="M 1552 580 L 1552 648" stroke-miterlimit="10"/></g><g transform="translate(-702,-126) scale(1,1)"><path fill="none" stroke="#00a9ff" d="M 1547.7904822439841 637.8373251423759 L 1552 648 L 1556.2095177560159 637.8373251423759" stroke-miterlimit="10"/></g><g transform="translate(-702,-126) scale(1,1)"><g><path fill="none" stroke="none"/><text fill="#00a9ff" stroke="none" font-family="Arial" font-size="13px" font-style="normal" font-weight="normal" text-decoration="none" x="1557.5" y="620.5">+[Buchen]</text></g></g><g transform="translate(-702,-126) scale(1,1)"><path fill="none" stroke="#00a9ff" d="M 1464 670 L 1328 670 M 1328 670 A 8 8 0 0 1 1320 662 L 1320 468" stroke-miterlimit="10"/></g><g transform="translate(-702,-126) scale(1,1)"><path fill="none" stroke="#00a9ff" d="M 1324.2095177560159 478.16267485762415 L 1320 468 L 1315.7904822439841 478.16267485762415" stroke-miterlimit="10"/></g><g transform="translate(-702,-126) scale(1,1)"><g><path fill="none" stroke="none"/><text fill="#00a9ff" stroke="none" font-family="Arial" font-size="13px" font-style="normal" font-weight="normal" text-decoration="none" x="1319.5" y="532.5">+[Abbrechen]</text></g></g><g transform="translate(-702,-126) scale(1,1)"><path fill="none" stroke="#00a9ff" d="M 1464 558 L 1328 558 M 1328 558 A 8 8 0 0 1 1320 550 L 1320 468" stroke-miterlimit="10"/></g><g transform="translate(-702,-126) scale(1,1)"><path fill="none" stroke="#00a9ff" d="M 1324.2095177560159 478.16267485762415 L 1320 468 L 1315.7904822439841 478.16267485762415" stroke-miterlimit="10"/></g><g transform="translate(-702,-126) scale(1,1)"><rect fill="#C0C0C0" stroke="none" x="887" y="431" width="176" height="44" opacity="0.2"/></g><g transform="translate(-702,-126) scale(1,1)"><rect fill="#ffffff" stroke="none" x="880" y="424" width="176" height="44"/></g><g transform="translate(-702,-126) scale(1,1)"><path fill="none" stroke="#000000" d="M 880 424 L 1056 424 L 1056 468 L 880 468 L 880 424 Z Z" stroke-miterlimit="10"/></g><g transform="translate(-702,-126) scale(1,1)"><path fill="none" stroke="#000000" d="M 880 449 L 1056 449" stroke-miterlimit="10"/></g><g transform="translate(-702,-126) scale(1,1)"><path fill="none" stroke="#000000" d="M 880 459 L 1056 459" stroke-miterlimit="10"/></g><g transform="translate(-702,-126) scale(1,1)"><g><path fill="none" stroke="none"/><text fill="#000000" stroke="none" font-family="Arial" font-size="13px" font-style="normal" font-weight="bold" text-decoration="none" x="919.94189453125" y="443.5">Search Dialogue</text></g></g><g transform="translate(-702,-126) scale(1,1)"><path fill="none" stroke="#000000" d="M 1168 456 L 1056 456" stroke-miterlimit="10"/></g><g transform="translate(-702,-126) scale(1,1)"><path fill="none" stroke="#000000" d="M 1066.162674857624 451.790482243984 L 1056 456 L 1066.162674857624 460.209517756016" stroke-miterlimit="10"/></g><g transform="translate(-702,-126) scale(1,1)"><g><path fill="none" stroke="none"/><text fill="#000000" stroke="none" font-family="Arial" font-size="13px" font-style="normal" font-weight="normal" text-decoration="none" x="1062.5" y="477.5">+[Raum Suchen]</text></g></g><g transform="translate(-702,-126) scale(1,1)"><rect fill="#C0C0C0" stroke="none" x="887" y="199" width="176" height="44" opacity="0.2"/></g><g transform="translate(-702,-126) scale(1,1)"><rect fill="#ffffff" stroke="none" x="880" y="192" width="176" height="44"/></g><g transform="translate(-702,-126) scale(1,1)"><path fill="none" stroke="#000000" d="M 880 192 L 1056 192 L 1056 236 L 880 236 L 880 192 Z Z" stroke-miterlimit="10"/></g><g transform="translate(-702,-126) scale(1,1)"><path fill="none" stroke="#000000" d="M 880 217 L 1056 217" stroke-miterlimit="10"/></g><g transform="translate(-702,-126) scale(1,1)"><path fill="none" stroke="#000000" d="M 880 227 L 1056 227" stroke-miterlimit="10"/></g><g transform="translate(-702,-126) scale(1,1)"><g><path fill="none" stroke="none"/><text fill="#000000" stroke="none" font-family="Arial" font-size="13px" font-style="normal" font-weight="bold" text-decoration="none" x="924.642333984375" y="211.5">Block Dialogue</text></g></g><g transform="translate(-702,-126) scale(1,1)"><path fill="none" stroke="#000000" d="M 967 424 L 967 236" stroke-miterlimit="10"/></g><g transform="translate(-702,-126) scale(1,1)"><path fill="none" stroke="#000000" d="M 971.209517756016 246.16267485762415 L 967 236 L 962.790482243984 246.16267485762415" stroke-miterlimit="10"/></g><g transform="translate(-702,-126) scale(1,1)"><g><path fill="none" stroke="none"/><text fill="#000000" stroke="none" font-family="Arial" font-size="13px" font-style="normal" font-weight="normal" text-decoration="none" x="886.5" y="335.5">+[Blockieren]</text></g></g><g transform="translate(-702,-126) scale(1,1)"><path fill="none" stroke="#000000" d="M 1056 216 L 1184 216 M 1184 216 A 8 8 0 0 1 1192 224 L 1192 424" stroke-miterlimit="10"/></g><g transform="translate(-702,-126) scale(1,1)"><path fill="none" stroke="#000000" d="M 1187.7904822439841 413.83732514237585 L 1192 424 L 1196.2095177560159 413.83732514237585" stroke-miterlimit="10"/></g><g transform="translate(-702,-126) scale(1,1)"><g><path fill="none" stroke="none"/><text fill="#000000" stroke="none" font-family="Arial" font-size="13px" font-style="normal" font-weight="normal" text-decoration="none" x="1103.5" y="276.5">+[Abbrechen]</text></g></g><g transform="translate(-702,-126) scale(1,1)"><rect fill="#C0C0C0" stroke="none" x="1343" y="935" width="176" height="44" opacity="0.2"/></g><g transform="translate(-702,-126) scale(1,1)"><rect fill="#e2e2e2" stroke="none" x="1336" y="928" width="176" height="44"/></g><g transform="translate(-702,-126) scale(1,1)"><path fill="none" stroke="#000000" d="M 1336 928 L 1512 928 L 1512 972 L 1336 972 L 1336 928 Z Z" stroke-miterlimit="10"/></g><g transform="translate(-702,-126) scale(1,1)"><path fill="none" stroke="#000000" d="M 1336 953 L 1512 953" stroke-miterlimit="10"/></g><g transform="translate(-702,-126) scale(1,1)"><path fill="none" stroke="#000000" d="M 1336 963 L 1512 963" stroke-miterlimit="10"/></g><g transform="translate(-702,-126) scale(1,1)"><g><path fill="none" stroke="none"/><text fill="#000000" stroke="none" font-family="Arial" font-size="13px" font-style="normal" font-weight="bold" text-decoration="none" x="1382.81005859375" y="947.5">Start Dialogue</text></g></g><g transform="translate(-702,-126) scale(1,1)"><rect fill="#C0C0C0" stroke="none" x="1063" y="935" width="176" height="44" opacity="0.2"/></g><g transform="translate(-702,-126) scale(1,1)"><rect fill="#ffffff" stroke="none" x="1056" y="928" width="176" height="44"/></g><g transform="translate(-702,-126) scale(1,1)"><path fill="none" stroke="#000000" d="M 1056 928 L 1232 928 L 1232 972 L 1056 972 L 1056 928 Z Z" stroke-miterlimit="10"/></g><g transform="translate(-702,-126) scale(1,1)"><path fill="none" stroke="#000000" d="M 1056 953 L 1232 953" stroke-miterlimit="10"/></g><g transform="translate(-702,-126) scale(1,1)"><path fill="none" stroke="#000000" d="M 1056 963 L 1232 963" stroke-miterlimit="10"/></g><g transform="translate(-702,-126) scale(1,1)"><g><path fill="none" stroke="none"/><text fill="#000000" stroke="none" font-family="Arial" font-size="13px" font-style="normal" font-weight="bold" text-decoration="none" x="1095.94189453125" y="947.5">Search Dialogue</text></g></g><g transform="translate(-702,-126) scale(1,1)"><rect fill="#C0C0C0" stroke="none" x="1535" y="847" width="176" height="44" opacity="0.2"/></g><g transform="translate(-702,-126) scale(1,1)"><rect fill="#ffffff" stroke="none" x="1528" y="840" width="176" height="44"/></g><g transform="translate(-702,-126) scale(1,1)"><path fill="none" stroke="#000000" d="M 1528 840 L 1704 840 L 1704 884 L 1528 884 L 1528 840 Z Z" stroke-miterlimit="10"/></g><g transform="translate(-702,-126) scale(1,1)"><path fill="none" stroke="#000000" d="M 1528 865 L 1704 865" stroke-miterlimit="10"/></g><g transform="translate(-702,-126) scale(1,1)"><path fill="none" stroke="#000000" d="M 1528 875 L 1704 875" stroke-miterlimit="10"/></g><g transform="translate(-702,-126) scale(1,1)"><g><path fill="none" stroke="none"/><text fill="#000000" stroke="none" font-family="Arial" font-size="13px" font-style="normal" font-weight="bold" text-decoration="none" x="1557.826904296875" y="859.5">Add Room Dialogue</text></g></g><g transform="translate(-702,-126) scale(1,1)"><rect fill="#C0C0C0" stroke="none" x="903" y="815" width="176" height="44" opacity="0.2"/></g><g transform="translate(-702,-126) scale(1,1)"><rect fill="#ffffff" stroke="none" x="896" y="808" width="176" height="44"/></g><g transform="translate(-702,-126) scale(1,1)"><path fill="none" stroke="#000000" d="M 896 808 L 1072 808 L 1072 852 L 896 852 L 896 808 Z Z" stroke-miterlimit="10"/></g><g transform="translate(-702,-126) scale(1,1)"><path fill="none" stroke="#000000" d="M 896 833 L 1072 833" stroke-miterlimit="10"/></g><g transform="translate(-702,-126) scale(1,1)"><path fill="none" stroke="#000000" d="M 896 843 L 1072 843" stroke-miterlimit="10"/></g><g transform="translate(-702,-126) scale(1,1)"><g><path fill="none" stroke="none"/><text fill="#000000" stroke="none" font-family="Arial" font-size="13px" font-style="normal" font-weight="bold" text-decoration="none" x="926.19189453125" y="827.5">Edit Room Dialogue</text></g></g><g transform="translate(-702,-126) scale(1,1)"><rect fill="#C0C0C0" stroke="none" x="1207" y="815" width="176" height="44" opacity="0.2"/></g><g transform="translate(-702,-126) scale(1,1)"><rect fill="#ffffff" stroke="none" x="1200" y="808" width="176" height="44"/></g><g transform="translate(-702,-126) scale(1,1)"><path fill="none" stroke="#000000" d="M 1200 808 L 1376 808 L 1376 852 L 1200 852 L 1200 808 Z Z" stroke-miterlimit="10"/></g><g transform="translate(-702,-126) scale(1,1)"><path fill="none" stroke="#000000" d="M 1200 833 L 1376 833" stroke-miterlimit="10"/></g><g transform="translate(-702,-126) scale(1,1)"><path fill="none" stroke="#000000" d="M 1200 843 L 1376 843" stroke-miterlimit="10"/></g><g transform="translate(-702,-126) scale(1,1)"><g><path fill="none" stroke="none"/><text fill="#000000" stroke="none" font-family="Arial" font-size="13px" font-style="normal" font-weight="bold" text-decoration="none" x="1222.603271484375" y="827.5">Delete Room Dialogue</text></g></g><g transform="translate(-702,-126) scale(1,1)"><rect fill="#C0C0C0" stroke="none" x="1535" y="1023" width="176" height="44" opacity="0.2"/></g><g transform="translate(-702,-126) scale(1,1)"><rect fill="#ffffff" stroke="none" x="1528" y="1016" width="176" height="44"/></g><g transform="translate(-702,-126) scale(1,1)"><path fill="none" stroke="#000000" d="M 1528 1016 L 1704 1016 L 1704 1060 L 1528 1060 L 1528 1016 Z Z" stroke-miterlimit="10"/></g><g transform="translate(-702,-126) scale(1,1)"><path fill="none" stroke="#000000" d="M 1528 1041 L 1704 1041" stroke-miterlimit="10"/></g><g transform="translate(-702,-126) scale(1,1)"><path fill="none" stroke="#000000" d="M 1528 1051 L 1704 1051" stroke-miterlimit="10"/></g><g transform="translate(-702,-126) scale(1,1)"><g><path fill="none" stroke="none"/><text fill="#000000" stroke="none" font-family="Arial" font-size="13px" font-style="normal" font-weight="bold" text-decoration="none" x="1544.090576171875" y="1035.5">Add Equipment Dialogue</text></g></g><g transform="translate(-702,-126) scale(1,1)"><rect fill="#C0C0C0" stroke="none" x="903" y="1055" width="176" height="44" opacity="0.2"/></g><g transform="translate(-702,-126) scale(1,1)"><rect fill="#ffffff" stroke="none" x="896" y="1048" width="176" height="44"/></g><g transform="translate(-702,-126) scale(1,1)"><path fill="none" stroke="#000000" d="M 896 1048 L 1072 1048 L 1072 1092 L 896 1092 L 896 1048 Z Z" stroke-miterlimit="10"/></g><g transform="translate(-702,-126) scale(1,1)"><path fill="none" stroke="#000000" d="M 896 1073 L 1072 1073" stroke-miterlimit="10"/></g><g transform="translate(-702,-126) scale(1,1)"><path fill="none" stroke="#000000" d="M 896 1083 L 1072 1083" stroke-miterlimit="10"/></g><g transform="translate(-702,-126) scale(1,1)"><g><path fill="none" stroke="none"/><text fill="#000000" stroke="none" font-family="Arial" font-size="13px" font-style="normal" font-weight="bold" text-decoration="none" x="912.45556640625" y="1067.5">Edit Equipment Dialogue</text></g></g><g transform="translate(-702,-126) scale(1,1)"><rect fill="#C0C0C0" stroke="none" x="1207" y="1055" width="177.3017578125" height="44" opacity="0.2"/></g><g transform="translate(-702,-126) scale(1,1)"><rect fill="#ffffff" stroke="none" x="1200" y="1048" width="177.3017578125" height="44"/></g><g transform="translate(-702,-126) scale(1,1)"><path fill="none" stroke="#000000" d="M 1200 1048 L 1377.3017578125 1048 L 1377.3017578125 1092 L 1200 1092 L 1200 1048 Z Z" stroke-miterlimit="10"/></g><g transform="translate(-702,-126) scale(1,1)"><path fill="none" stroke="#000000" d="M 1200 1073 L 1377.3017578125 1073" stroke-miterlimit="10"/></g><g transform="translate(-702,-126) scale(1,1)"><path fill="none" stroke="#000000" d="M 1200 1083 L 1377.3017578125 1083" stroke-miterlimit="10"/></g><g transform="translate(-702,-126) scale(1,1)"><g><path fill="none" stroke="none"/><text fill="#000000" stroke="none" font-family="Arial" font-size="13px" font-style="normal" font-weight="bold" text-decoration="none" x="1209.517822265625" y="1067.5">Delete Equipment Dialogue</text></g></g><g transform="translate(-702,-126) scale(1,1)"><path fill="none" stroke="#000000" d="M 1104 972 L 1104 1062 M 1104 1062 A 8 8 0 0 1 1096 1070 L 1072 1070" stroke-miterlimit="10"/></g><g transform="translate(-702,-126) scale(1,1)"><path fill="none" stroke="#000000" d="M 1082.162674857624 1065.7904822439841 L 1072 1070 L 1082.162674857624 1074.2095177560159" stroke-miterlimit="10"/></g><g transform="translate(-702,-126) scale(1,1)"><g><path fill="none" stroke="none"/><text fill="#000000" stroke="none" font-family="Arial" font-size="13px" font-style="normal" font-weight="normal" text-decoration="none" x="1007.5" y="1035.5">+[Bearbeiten]</text></g></g><g transform="translate(-702,-126) scale(1,1)"><path fill="none" stroke="#000000" d="M 1144 972 L 1144 1062 M 1144 1062 A 8 8 0 0 0 1152 1070 L 1200 1070" stroke-miterlimit="10"/></g><g transform="translate(-702,-126) scale(1,1)"><path fill="none" stroke="#000000" d="M 1189.837325142376 1074.2095177560159 L 1200 1070 L 1189.837325142376 1065.7904822439841" stroke-miterlimit="10"/></g><g transform="translate(-702,-126) scale(1,1)"><g><path fill="none" stroke="none"/><text fill="#000000" stroke="none" font-family="Arial" font-size="13px" font-style="normal" font-weight="normal" text-decoration="none" x="1152.5" y="1044.5">+[Löschen]</text></g></g><g transform="translate(-702,-126) scale(1,1)"><path fill="none" stroke="#000000" d="M 1104 928 L 1104 840 M 1104 840 A 8 8 0 0 0 1096 832 L 1072 832" stroke-miterlimit="10"/></g><g transform="translate(-702,-126) scale(1,1)"><path fill="none" stroke="#000000" d="M 1082.162674857624 827.790482243984 L 1072 832 L 1082.162674857624 836.209517756016" stroke-miterlimit="10"/></g><g transform="translate(-702,-126) scale(1,1)"><g><path fill="none" stroke="none"/><text fill="#000000" stroke="none" font-family="Arial" font-size="13px" font-style="normal" font-weight="normal" text-decoration="none" x="1007.5" y="876.5">+[Bearbeiten]</text></g></g><g transform="translate(-702,-126) scale(1,1)"><path fill="none" stroke="#000000" d="M 1144 928 L 1144 840 M 1144 840 A 8 8 0 0 1 1152 832 L 1200 832" stroke-miterlimit="10"/></g><g transform="translate(-702,-126) scale(1,1)"><path fill="none" stroke="#000000" d="M 1189.837325142376 836.209517756016 L 1200 832 L 1189.837325142376 827.790482243984" stroke-miterlimit="10"/></g><g transform="translate(-702,-126) scale(1,1)"><g><path fill="none" stroke="none"/><text fill="#000000" stroke="none" font-family="Arial" font-size="13px" font-style="normal" font-weight="normal" text-decoration="none" x="1151.5" y="875.5">+[Löschen]</text></g></g><g transform="translate(-702,-126) scale(1,1)"><path fill="none" stroke="#000000" d="M 1528 848 L 1424 848 M 1424 848 A 8 8 0 0 0 1416 856 L 1416 928" stroke-miterlimit="10"/></g><g transform="translate(-702,-126) scale(1,1)"><path fill="none" stroke="#000000" d="M 1411.7904822439841 917.8373251423759 L 1416 928 L 1420.2095177560159 917.8373251423759" stroke-miterlimit="10"/></g><g transform="translate(-702,-126) scale(1,1)"><path fill="none" stroke="#000000" d="M 1464 928 L 1464 880 M 1464 880 A 8 8 0 0 1 1472 872 L 1528 872" stroke-miterlimit="10"/></g><g transform="translate(-702,-126) scale(1,1)"><path fill="none" stroke="#000000" d="M 1517.837325142376 876.209517756016 L 1528 872 L 1517.837325142376 867.790482243984" stroke-miterlimit="10"/></g><g transform="translate(-702,-126) scale(1,1)"><g><path fill="none" stroke="none"/><text fill="#000000" stroke="none" font-family="Arial" font-size="13px" font-style="normal" font-weight="normal" text-decoration="none" x="1470.5" y="899.5">+[Hinzufügen]</text></g></g><g transform="translate(-702,-126) scale(1,1)"><path fill="none" stroke="#000000" d="M 1464 972 L 1464 1016 M 1464 1016 A 8 8 0 0 0 1472 1024 L 1528 1024" stroke-miterlimit="10"/></g><g transform="translate(-702,-126) scale(1,1)"><path fill="none" stroke="#000000" d="M 1517.837325142376 1028.2095177560159 L 1528 1024 L 1517.837325142376 1019.790482243984" stroke-miterlimit="10"/></g><g transform="translate(-702,-126) scale(1,1)"><g><path fill="none" stroke="none"/><text fill="#000000" stroke="none" font-family="Arial" font-size="13px" font-style="normal" font-weight="normal" text-decoration="none" x="1470.5" y="1004.5">+[Hinzufügen]</text></g></g><g transform="translate(-702,-126) scale(1,1)"><path fill="none" stroke="#000000" d="M 1528 1048 L 1424 1048 M 1424 1048 A 8 8 0 0 1 1416 1040 L 1416 972" stroke-miterlimit="10"/></g><g transform="translate(-702,-126) scale(1,1)"><path fill="none" stroke="#000000" d="M 1420.2095177560159 982.1626748576241 L 1416 972 L 1411.7904822439841 982.1626748576241" stroke-miterlimit="10"/></g><g transform="translate(-702,-126) scale(1,1)"><path fill="none" stroke="#000000" d="M 1288 1092 L 1288 1112 M 1288 1112 A 8 8 0 0 0 1296 1120 L 1408 1120 M 1408 1120 A 8 8 0 0 0 1416 1112 L 1416 972" stroke-miterlimit="10"/></g><g transform="translate(-702,-126) scale(1,1)"><path fill="none" stroke="#000000" d="M 1420.2095177560159 982.1626748576241 L 1416 972 L 1411.7904822439841 982.1626748576241" stroke-miterlimit="10"/></g><g transform="translate(-702,-126) scale(1,1)"><path fill="none" stroke="#000000" d="M 896 1070 L 800 1070 M 800 1070 A 8 8 0 0 0 792 1078 L 792 1112 M 792 1112 A 8 8 0 0 0 800 1120 L 1408 1120 M 1408 1120 A 8 8 0 0 0 1416 1112 L 1416 972" stroke-miterlimit="10"/></g><g transform="translate(-702,-126) scale(1,1)"><path fill="none" stroke="#000000" d="M 1420.2095177560159 982.1626748576241 L 1416 972 L 1411.7904822439841 982.1626748576241" stroke-miterlimit="10"/></g><g transform="translate(-702,-126) scale(1,1)"><g><path fill="none" stroke="none"/><text fill="#000000" stroke="none" font-family="Arial" font-size="13px" font-style="normal" font-weight="normal" text-decoration="none" x="1327.5" y="1139.5">+[Abbrechen]|[Bestätigen]</text></g></g><g transform="translate(-702,-126) scale(1,1)"><path fill="none" stroke="#000000" d="M 1264 808 L 1264 792 M 1264 792 A 8 8 0 0 1 1272 784 L 1408 784 M 1408 784 A 8 8 0 0 1 1416 792 L 1416 928" stroke-miterlimit="10"/></g><g transform="translate(-702,-126) scale(1,1)"><path fill="none" stroke="#000000" d="M 1411.7904822439841 917.8373251423759 L 1416 928 L 1420.2095177560159 917.8373251423759" stroke-miterlimit="10"/></g><g transform="translate(-702,-126) scale(1,1)"><path fill="none" stroke="#000000" d="M 896 830 L 800 830 M 800 830 A 8 8 0 0 1 792 822 L 792 792 M 792 792 A 8 8 0 0 1 800 784 L 1408 784 M 1408 784 A 8 8 0 0 1 1416 792 L 1416 928" stroke-miterlimit="10"/></g><g transform="translate(-702,-126) scale(1,1)"><path fill="none" stroke="#000000" d="M 1411.7904822439841 917.8373251423759 L 1416 928 L 1420.2095177560159 917.8373251423759" stroke-miterlimit="10"/></g><g transform="translate(-702,-126) scale(1,1)"><g><path fill="none" stroke="none"/><text fill="#000000" stroke="none" font-family="Arial" font-size="13px" font-style="normal" font-weight="normal" text-decoration="none" x="1343.5" y="772.5">+[Abbrechen]|[Bestätigen]</text></g></g><g transform="translate(-702,-126) scale(1,1)"><path fill="none" stroke="#00a9ff" d="M 1480 468 L 1480 488 M 1480 488 A 8 8 0 0 1 1472 496 L 1328 496 M 1328 496 A 8 8 0 0 1 1320 488 L 1320 468" stroke-miterlimit="10"/></g><g transform="translate(-702,-126) scale(1,1)"><path fill="none" stroke="#00a9ff" d="M 1324.2095177560159 478.16267485762415 L 1320 468 L 1315.7904822439841 478.16267485762415" stroke-miterlimit="10"/></g><g transform="translate(-702,-126) scale(1,1)"><path fill="none" stroke="#000000" d="M 1336 960 L 1232 960" stroke-miterlimit="10"/></g><g transform="translate(-702,-126) scale(1,1)"><path fill="none" stroke="#000000" d="M 1242.162674857624 955.790482243984 L 1232 960 L 1242.162674857624 964.209517756016" stroke-miterlimit="10"/></g><g transform="translate(-702,-126) scale(1,1)"><g><path fill="none" stroke="none"/><text fill="#000000" stroke="none" font-family="Arial" font-size="13px" font-style="normal" font-weight="normal" text-decoration="none" x="1253.5" y="981.5">+[Suchen]</text></g></g><g transform="translate(-702,-126) scale(1,1)"><path fill="none" stroke="#000000" d="M 1232 944 L 1336 944" stroke-miterlimit="10"/></g><g transform="translate(-702,-126) scale(1,1)"><path fill="none" stroke="#000000" d="M 1325.837325142376 948.209517756016 L 1336 944 L 1325.837325142376 939.790482243984" stroke-miterlimit="10"/></g><g transform="translate(-702,-126) scale(1,1)"><g><path fill="none" stroke="none"/><text fill="#000000" stroke="none" font-family="Arial" font-size="13px" font-style="normal" font-weight="normal" text-decoration="none" x="1245.5" y="935.5">+[Abbrechen]</text></g></g><g transform="translate(-702,-126) scale(1,1)"><path fill="none" stroke="#000000" d="M 1056 440 L 1168 440" stroke-miterlimit="10"/></g><g transform="translate(-702,-126) scale(1,1)"><path fill="none" stroke="#000000" d="M 1157.837325142376 444.209517756016 L 1168 440 L 1157.837325142376 435.790482243984" stroke-miterlimit="10"/></g><g transform="translate(-702,-126) scale(1,1)"><g><path fill="none" stroke="none"/><text fill="#000000" stroke="none" font-family="Arial" font-size="13px" font-style="normal" font-weight="normal" text-decoration="none" x="1072.5" y="427.5">+[Abbrechen]</text></g></g><g transform="translate(-702,-126) scale(1,1)"><path fill="none" stroke="#d16800" d="M 1480 424 L 1480 400 M 1480 400 A 8 8 0 0 0 1472 392 L 1328 392 M 1328 392 A 8 8 0 0 0 1320 400 L 1320 424" stroke-miterlimit="10"/></g><g transform="translate(-702,-126) scale(1,1)"><path fill="none" stroke="#d16800" d="M 1315.7904822439841 413.83732514237585 L 1320 424 L 1324.2095177560159 413.83732514237585" stroke-miterlimit="10"/></g><g transform="translate(-702,-126) scale(1,1)"><rect fill="#C0C0C0" stroke="none" x="1535" y="783" width="176" height="44" opacity="0.2"/></g><g transform="translate(-702,-126) scale(1,1)"><rect fill="#ffffff" stroke="none" x="1528" y="776" width="176" height="44"/></g><g transform="translate(-702,-126) scale(1,1)"><path fill="none" stroke="#000000" d="M 1528 776 L 1704 776 L 1704 820 L 1528 820 L 1528 776 Z Z" stroke-miterlimit="10"/></g><g transform="translate(-702,-126) scale(1,1)"><path fill="none" stroke="#000000" d="M 1528 801 L 1704 801" stroke-miterlimit="10"/></g><g transform="translate(-702,-126) scale(1,1)"><path fill="none" stroke="#000000" d="M 1528 811 L 1704 811" stroke-miterlimit="10"/></g><g transform="translate(-702,-126) scale(1,1)"><g><path fill="none" stroke="none"/><text fill="#000000" stroke="none" font-family="Arial" font-size="13px" font-style="normal" font-weight="bold" text-decoration="none" x="1546.255126953125" y="795.5">Add Eventplan Dialogue</text></g></g><g transform="translate(-702,-126) scale(1,1)"><path fill="none" stroke="#000000" d="M 1512 952 L 1720 952 M 1720 952 A 8 8 0 0 0 1728 944 L 1728 808 M 1728 808 A 8 8 0 0 0 1720 800 L 1704 800" stroke-miterlimit="10"/></g><g transform="translate(-702,-126) scale(1,1)"><path fill="none" stroke="#000000" d="M 1714.162674857624 795.790482243984 L 1704 800 L 1714.162674857624 804.209517756016" stroke-miterlimit="10"/></g><g transform="translate(-702,-126) scale(1,1)"><g><path fill="none" stroke="none"/><text fill="#000000" stroke="none" font-family="Arial" font-size="13px" font-style="normal" font-weight="normal" text-decoration="none" x="1590.5" y="943.5">+[Hinzufügen]</text></g></g><g transform="translate(-702,-126) scale(1,1)"><path fill="none" stroke="#000000" d="M 1528 792 L 1424 792 M 1424 792 A 8 8 0 0 0 1416 800 L 1416 928" stroke-miterlimit="10"/></g><g transform="translate(-702,-126) scale(1,1)"><path fill="none" stroke="#000000" d="M 1411.7904822439841 917.8373251423759 L 1416 928 L 1420.2095177560159 917.8373251423759" stroke-miterlimit="10"/></g><g transform="translate(-702,-126) scale(1,1)"><rect fill="#C0C0C0" stroke="none" x="775" y="887" width="176" height="44" opacity="0.2"/></g><g transform="translate(-702,-126) scale(1,1)"><rect fill="#ffffff" stroke="none" x="768" y="880" width="176" height="44"/></g><g transform="translate(-702,-126) scale(1,1)"><path fill="none" stroke="#000000" d="M 768 880 L 944 880 L 944 924 L 768 924 L 768 880 Z Z" stroke-miterlimit="10"/></g><g transform="translate(-702,-126) scale(1,1)"><path fill="none" stroke="#000000" d="M 768 905 L 944 905" stroke-miterlimit="10"/></g><g transform="translate(-702,-126) scale(1,1)"><path fill="none" stroke="#000000" d="M 768 915 L 944 915" stroke-miterlimit="10"/></g><g transform="translate(-702,-126) scale(1,1)"><g><path fill="none" stroke="none"/><text fill="#000000" stroke="none" font-family="Arial" font-size="13px" font-style="normal" font-weight="bold" text-decoration="none" x="786.6201171875" y="899.5">Edit Eventplan Dialogue</text></g></g><g transform="translate(-702,-126) scale(1,1)"><rect fill="#C0C0C0" stroke="none" x="775" y="983" width="176" height="44" opacity="0.2"/></g><g transform="translate(-702,-126) scale(1,1)"><rect fill="#ffffff" stroke="none" x="768" y="976" width="176" height="44"/></g><g transform="translate(-702,-126) scale(1,1)"><path fill="none" stroke="#000000" d="M 768 976 L 944 976 L 944 1020 L 768 1020 L 768 976 Z Z" stroke-miterlimit="10"/></g><g transform="translate(-702,-126) scale(1,1)"><path fill="none" stroke="#000000" d="M 768 1001 L 944 1001" stroke-miterlimit="10"/></g><g transform="translate(-702,-126) scale(1,1)"><path fill="none" stroke="#000000" d="M 768 1011 L 944 1011" stroke-miterlimit="10"/></g><g transform="translate(-702,-126) scale(1,1)"><g><path fill="none" stroke="none"/><text fill="#000000" stroke="none" font-family="Arial" font-size="13px" font-style="normal" font-weight="bold" text-decoration="none" x="779.031494140625" y="995.5">Delete Eventplan Dialogue</text></g></g><g transform="translate(-702,-126) scale(1,1)"><path fill="none" stroke="#000000" d="M 1072 972 L 1072 992 M 1072 992 A 8 8 0 0 1 1064 1000 L 944 1000" stroke-miterlimit="10"/></g><g transform="translate(-702,-126) scale(1,1)"><path fill="none" stroke="#000000" d="M 954.1626748576241 995.790482243984 L 944 1000 L 954.1626748576241 1004.209517756016" stroke-miterlimit="10"/></g><g transform="translate(-702,-126) scale(1,1)"><g><path fill="none" stroke="none"/><text fill="#000000" stroke="none" font-family="Arial" font-size="13px" font-style="normal" font-weight="normal" text-decoration="none" x="975.5" y="995.5">+[Löschen]</text></g></g><g transform="translate(-702,-126) scale(1,1)"><path fill="none" stroke="#000000" d="M 1056 928 L 1056 912 M 1056 912 A 8 8 0 0 0 1048 904 L 944 904" stroke-miterlimit="10"/></g><g transform="translate(-702,-126) scale(1,1)"><path fill="none" stroke="#000000" d="M 954.1626748576241 899.790482243984 L 944 904 L 954.1626748576241 908.209517756016" stroke-miterlimit="10"/></g><g transform="translate(-702,-126) scale(1,1)"><g><path fill="none" stroke="none"/><text fill="#000000" stroke="none" font-family="Arial" font-size="13px" font-style="normal" font-weight="normal" text-decoration="none" x="967.5" y="924.5">+[Bearbeiten]</text></g></g><g transform="translate(-702,-126) scale(1,1)"><path fill="none" stroke="#000000" d="M 792 880 L 792 792 M 792 792 A 8 8 0 0 1 800 784 L 1408 784 M 1408 784 A 8 8 0 0 1 1416 792 L 1416 928" stroke-miterlimit="10"/></g><g transform="translate(-702,-126) scale(1,1)"><path fill="none" stroke="#000000" d="M 1411.7904822439841 917.8373251423759 L 1416 928 L 1420.2095177560159 917.8373251423759" stroke-miterlimit="10"/></g><g transform="translate(-702,-126) scale(1,1)"><path fill="none" stroke="#000000" d="M 792 1020 L 792 1112 M 792 1112 A 8 8 0 0 0 800 1120 L 1408 1120 M 1408 1120 A 8 8 0 0 0 1416 1112 L 1416 972" stroke-miterlimit="10"/></g><g transform="translate(-702,-126) scale(1,1)"><path fill="none" stroke="#000000" d="M 1420.2095177560159 982.1626748576241 L 1416 972 L 1411.7904822439841 982.1626748576241" stroke-miterlimit="10"/></g></g></svg>